<?xml version="1.0" encoding="iso-8859-1"?>
<!-- Generator: Adobe Illustrator 18.0.0, SVG Export Plug-In . SVG Version: 6.00 Build 0)  -->
<!DOCTYPE svg PUBLIC "-//W3C//DTD SVG 1.1//EN" "http://www.w3.org/Graphics/SVG/1.1/DTD/svg11.dtd">
<svg version="1.1" id="Capa_1" xmlns="http://www.w3.org/2000/svg" xmlns:xlink="http://www.w3.org/1999/xlink" x="0px" y="0px"
	 viewBox="0 0 435.738 435.738" style="enable-background:new 0 0 435.738 435.738;" xml:space="preserve">
<g>
	<g>
		<g>
			<path d="M162.507,188.784c-1.579,0-3.129-0.64-4.25-1.75c-1.109-1.12-1.75-2.67-1.75-4.25c0-1.579,0.641-3.12,1.75-4.239
				c1.121-1.121,2.671-1.761,4.25-1.761c1.58,0,3.121,0.64,4.24,1.761c1.121,1.119,1.76,2.66,1.76,4.239
				c0,1.58-0.639,3.13-1.76,4.25C165.629,188.144,164.088,188.784,162.507,188.784z"/>
		</g>
		<g>
			<path d="M271.675,86.465c-2.182-14.298-12.582-25.683-25.877-28.33c-10.348-2.062-20.346,1.516-27.93,9.671
				c-7.585-8.156-17.583-11.733-27.928-9.671c-13.297,2.647-23.696,14.032-25.877,28.331c-1.734,11.365-0.243,40.814,50.932,68.731
				c0.912,0.498,1.897,0.734,2.868,0.734l0.005-0.021l0.006,0.021c0.971,0,1.955-0.236,2.867-0.734
				C271.918,127.281,273.41,97.831,271.675,86.465z M217.869,143.06c-29.041-16.566-44.671-36.903-41.943-54.785
				c1.424-9.322,7.997-16.705,16.359-18.371c7.84-1.557,15.295,2.428,20.452,10.942l0.003-0.002
				c0.485,0.804,1.163,1.507,2.021,2.026c2.835,1.717,6.523,0.811,8.24-2.024c5.158-8.516,12.619-12.499,20.453-10.942
				c8.361,1.665,14.936,9.049,16.358,18.371C262.54,106.157,246.91,126.493,217.869,143.06z"/>
			<g>
				<g>
					<path d="M273.228,188.784c-1.58,0-3.131-0.64-4.24-1.75c-1.119-1.12-1.76-2.67-1.76-4.25c0-1.579,0.641-3.12,1.76-4.239
						c1.109-1.121,2.66-1.761,4.24-1.761c1.58,0,3.131,0.64,4.24,1.761c1.119,1.119,1.76,2.66,1.76,4.239
						c0,1.58-0.641,3.13-1.76,4.25C276.359,188.144,274.808,188.784,273.228,188.784z"/>
				</g>
				<path d="M434.998,250.783c-0.828-1.508-2.264-2.588-3.941-2.967l-78.504-17.68c4.799-21.016-0.633-37.34-6.377-47.664
					c-8.336-14.984-22.746-26.658-37.605-30.467c-8.34-2.138-15.559-3.177-22.065-3.177c-15.047,0-24.51,5.655-34.531,11.642
					c-0.932,0.557-1.879,1.123-2.848,1.695l-31.258,7.207l-31.256-7.207c-0.97-0.572-1.918-1.139-2.85-1.695
					c-10.021-5.987-19.485-11.642-34.53-11.642c-6.507,0-13.725,1.039-22.066,3.177c-14.859,3.809-29.27,15.482-37.606,30.467
					c-5.744,10.324-11.176,26.648-6.376,47.664l-78.504,17.68c-1.678,0.379-3.113,1.459-3.94,2.967
					c-0.828,1.508-0.969,3.299-0.388,4.918c0.203,0.561,5.089,13.928,17.014,27.48c14.6,16.592,33.447,26.254,54.795,28.17
					c-0.836,6.363-4.614,18.871-20.125,34.563c-1.686,1.705-2.191,4.25-1.29,6.473c0.901,2.223,3.042,3.693,5.438,3.744
					c0,0,0.369,0.008,1.074,0.008c5.824,0,40.8-0.597,75.638-14.009c1.889,3.354,3.788,11.39-5.468,26.983
					c-1.691,2.85-0.752,6.529,2.098,8.223c0.96,0.568,2.015,0.84,3.057,0.84c2.048,0,4.043-1.049,5.165-2.938
					c11.246-18.944,9.661-30.979,6.223-37.833c5.498-2.596,10.909-5.555,16.122-8.917c3.551,5.328,8.163,17.253-1.268,36.947
					c-1.431,2.99-0.169,6.572,2.82,8.004c0.836,0.4,1.718,0.59,2.587,0.59c2.238,0,4.385-1.258,5.416-3.41
					c12.004-25.068,5.59-41.259,0.186-49.112c6.427-5.118,12.383-10.983,17.591-17.724c21.23-27.479,26.455-64.135,15.549-108.995
					l14.896-11.643l14.895,11.643c-10.906,44.86-5.684,81.517,15.547,108.995c5.207,6.739,11.161,12.602,17.587,17.72
					c-5.4,7.855-11.81,24.053,0.19,49.116c1.031,2.152,3.178,3.41,5.416,3.41c0.869,0,1.75-0.19,2.586-0.59
					c2.99-1.432,4.252-5.014,2.822-8.004c-9.433-19.696-4.818-31.619-1.268-36.946c5.212,3.362,10.623,6.32,16.119,8.916
					c-3.439,6.852-5.022,18.889,6.225,37.833c1.121,1.889,3.117,2.938,5.164,2.938c1.041,0,2.098-0.271,3.057-0.842
					c2.85-1.691,3.789-5.371,2.098-8.221c-9.292-15.654-7.44-23.608-5.477-26.986c34.841,13.414,69.821,14.012,75.645,14.012
					c0.002,0,0.004,0,0.006,0c0.701,0,1.068-0.008,1.068-0.008c2.398-0.051,4.539-1.521,5.44-3.744
					c0.9-2.223,0.396-4.768-1.291-6.473c-15.508-15.691-19.287-28.199-20.123-34.563c21.348-1.916,40.195-11.578,54.795-28.17
					c11.926-13.553,16.811-26.92,17.014-27.48C435.966,254.081,435.824,252.29,434.998,250.783z M192.506,187.738
					c-1.886,1.475-2.715,3.927-2.11,6.242c11.17,42.828,6.976,77.303-12.467,102.465c-28.528,36.924-82.728,45.285-107.936,47.158
					c10.721-13.978,13.607-25.446,14.226-32.276c9.048-0.906,25.947-4.128,34.45-15.585c1.976-2.66,1.419-6.42-1.242-8.395
					c-2.661-1.975-6.419-1.418-8.394,1.242c-6.688,9.011-24.389,11.058-30.757,11.093c-20.453-0.48-37.82-8.591-51.619-24.11
					c-5.797-6.522-9.746-13.074-12.133-17.672l77.407-17.432c1.637-0.369,3.044-1.406,3.881-2.861
					c0.838-1.453,1.027-3.191,0.524-4.791c-6.28-19.986-1.448-35.236,3.711-44.51c6.79-12.203,18.323-21.658,30.1-24.677
					c7.354-1.885,13.597-2.801,19.086-2.801c11.733,0,18.714,4.171,28.376,9.942c1.211,0.725,2.447,1.463,3.723,2.21
					c0.524,0.308,1.093,0.534,1.686,0.671l21.245,4.898L192.506,187.738z M409.08,275.572c-13.798,15.518-31.163,23.63-51.617,24.11
					c-6.37-0.034-24.07-2.081-30.756-11.093c-1.977-2.66-5.732-3.217-8.395-1.242c-2.66,1.975-3.217,5.732-1.242,8.395
					c8.502,11.457,25.401,14.679,34.449,15.585c0.619,6.83,3.505,18.297,14.225,32.276c-25.207-1.873-79.406-10.234-107.936-47.158
					c-19.441-25.162-23.635-59.637-12.465-102.465c0.604-2.316-0.227-4.768-2.111-6.242l-11.756-9.188l21.246-4.898
					c0.592-0.137,1.16-0.363,1.686-0.671c1.273-0.747,2.51-1.485,3.721-2.21c9.662-5.771,16.642-9.942,28.377-9.942
					c5.488,0,11.732,0.916,19.086,2.801c11.775,3.018,23.309,12.474,30.098,24.677c5.16,9.273,9.992,24.523,3.713,44.51
					c-0.504,1.6-0.314,3.338,0.523,4.791c0.838,1.455,2.244,2.492,3.881,2.861l77.406,17.432
					C418.826,262.499,414.877,269.052,409.08,275.572z"/>
			</g>
		</g>
	</g>
</g>
<g>
</g>
<g>
</g>
<g>
</g>
<g>
</g>
<g>
</g>
<g>
</g>
<g>
</g>
<g>
</g>
<g>
</g>
<g>
</g>
<g>
</g>
<g>
</g>
<g>
</g>
<g>
</g>
<g>
</g>
</svg>
