<?xml version="1.0" encoding="utf-8"?>
<!-- Generator: Adobe Illustrator 17.0.0, SVG Export Plug-In . SVG Version: 6.00 Build 0)  -->
<!DOCTYPE svg PUBLIC "-//W3C//DTD SVG 1.1//EN" "http://www.w3.org/Graphics/SVG/1.1/DTD/svg11.dtd">
<svg version="1.1" id="Capa_1" xmlns="http://www.w3.org/2000/svg" xmlns:xlink="http://www.w3.org/1999/xlink" x="0px" y="0px"
	 width="31.7px" height="19.947px" viewBox="0 0 31.7 19.947" enable-background="new 0 0 31.7 19.947" xml:space="preserve">
<path d="M3.618,0.789l0.265,2.036l-0.16-0.077L1.961,0l0.353,2.692L0,4.111l3.244-0.359l0.161,0.076L1.656,4.902L4.9,4.543
	l2.746,1.31C7.715,5.466,7.832,5.11,7.983,4.78L5.378,3.538C5.378,3.538,3.618,0.789,3.618,0.789z M31.7,15.595l-2.331-3.636
	l0.267,2.035L25.27,11.91c0.764-1.163,1.327-2.302,1.489-3.298c0.281-1.716,0.033-3.099-0.738-4.11
	c-0.777-1.021-2.011-1.607-3.773-1.795c-0.142-0.016-0.291-0.023-0.442-0.023c-1.526,0-3.254,0.738-4.261,2.136
	c-1.008-1.397-2.735-2.136-4.259-2.136c-0.153,0-0.301,0.008-0.444,0.023C11.08,2.895,9.846,3.481,9.069,4.502
	C8.899,4.723,8.76,4.964,8.643,5.221c-0.154,0.328-0.269,0.684-0.339,1.07C8.18,6.979,8.188,7.753,8.328,8.612
	c0.684,4.169,8.402,10.859,8.73,11.145c0.149,0.128,0.333,0.19,0.519,0.19s0.372-0.064,0.522-0.193
	c0.207-0.18,3.371-2.946,5.826-6.01l-6.05-2.886c0.299-0.234,0.699-0.522,1.02-0.747l5.725,2.73
	c0.002-0.002,0.004-0.005,0.006-0.007l4.531,2.162l-1.749,1.073L31.7,15.595z"/>
</svg>
