<?xml version="1.0" standalone="no"?><!DOCTYPE svg PUBLIC "-//W3C//DTD SVG 1.1//EN" "http://www.w3.org/Graphics/SVG/1.1/DTD/svg11.dtd"><svg t="1543892391354" class="icon" style="" viewBox="0 0 1024 1024" version="1.1" xmlns="http://www.w3.org/2000/svg" p-id="2564" xmlns:xlink="http://www.w3.org/1999/xlink" width="200" height="200"><defs><style type="text/css"></style></defs><path d="M969.386667 866.986667l-136.533334-136.533334c93.866667-126.293333 122.88-307.2 22.186667-481.28-59.733333-102.4-158.72-177.493333-273.066667-203.093333C273.066667-23.893333 3.413333 223.573333 37.546667 525.653333c17.066667 153.6 117.76 288.426667 259.413333 351.573334 158.72 71.68 319.146667 39.253333 435.2-46.08l136.533333 136.533333c27.306667 27.306667 73.386667 27.306667 102.4 0 25.6-27.306667 25.6-73.386667-1.706666-100.693333M170.666667 476.16c0-170.666667 136.533333-305.493333 305.493333-305.493333 170.666667 0 305.493333 136.533333 305.493333 305.493333 0 170.666667-136.533333 305.493333-305.493333 305.493333-170.666667 0-305.493333-136.533333-305.493333-305.493333" p-id="2565" fill="#e6e6e6"></path></svg>