<?xml version="1.0" standalone="no"?><!DOCTYPE svg PUBLIC "-//W3C//DTD SVG 1.1//EN" "http://www.w3.org/Graphics/SVG/1.1/DTD/svg11.dtd">
<svg xmlns:dc="http://purl.org/dc/elements/1.1/" xmlns:cc="http://creativecommons.org/ns#" xmlns:rdf="http://www.w3.org/1999/02/22-rdf-syntax-ns#" xmlns:svg="http://www.w3.org/2000/svg" xmlns="http://www.w3.org/2000/svg" id="svg202162" viewBox="0 0 1024 768" height="768px" width="1024px" version="1.1">
  <metadata id="metadata202168">
    <rdf:rdf>
      <cc:work rdf:about="">
        <dc:format>image/svg+xml</dc:format>
        <dc:type rdf:resource="http://purl.org/dc/dcmitype/StillImage"></dc:type>
      </cc:work>
    </rdf:rdf>
  </metadata>
  <defs id="defs202166"></defs>
  <g id="logo-group">
    <g id="title" style="font-style:normal;font-weight:300;font-size:72px;line-height:1;font-family:'Montserrat Light Alt1';font-variant-ligatures:none;text-align:center;text-anchor:middle" aria-label="SluckyUI">
      <path id="path202170" style="font-style: normal; font-weight: 300; font-size: 72px; line-height: 1; font-family: &quot;Montserrat Light Alt1&quot;; font-variant-ligatures: none; text-align: center; text-anchor: middle; fill: rgb(255, 227, 97);" d="m 369.95581,118.488 c 3.312,1.296 6.84,1.872 10.584,1.872 3.96,0 7.344,-0.576 10.08,-1.8 2.736,-1.152 4.752,-2.808 6.048,-4.824 1.296,-2.016 2.016,-4.248 2.016,-6.696 0,-2.952 -0.792,-5.328 -2.376,-7.056 -1.584,-1.728 -3.456,-3.096 -5.616,-3.96 -2.232,-0.864 -5.184,-1.728 -8.856,-2.664 -3.312,-0.792 -5.976,-1.584 -7.848,-2.304 -1.944,-0.72 -3.528,-1.728 -4.824,-3.096 -1.296,-1.296 -1.944,-3.096 -1.944,-5.4 0,-2.952 1.152,-5.4 3.6,-7.272 2.376,-1.872 5.904,-2.808 10.584,-2.808 2.304,0 4.68,0.36 7.128,1.08 2.448,0.72 4.68,1.8 6.696,3.168 l 1.368,-2.952 c -2.016,-1.368 -4.32,-2.448 -6.984,-3.312 -2.736,-0.792 -5.472,-1.224 -8.208,-1.224 -4.032,0 -7.344,0.648 -10.008,1.8 -2.664,1.224 -4.608,2.88 -5.904,4.896 -1.296,2.016 -1.944,4.248 -1.944,6.696 0,3.024 0.72,5.472 2.304,7.272 1.584,1.8 3.456,3.096 5.688,3.96 2.232,0.864 5.184,1.8 8.928,2.664 3.24,0.792 5.832,1.512 7.776,2.232 1.872,0.72 3.528,1.8 4.824,3.096 1.296,1.368 1.944,3.168 1.944,5.4 0,2.952 -1.224,5.328 -3.672,7.128 -2.448,1.872 -6.12,2.736 -10.872,2.736 -3.312,0 -6.48,-0.576 -9.504,-1.728 -3.024,-1.152 -5.4,-2.736 -7.128,-4.608 l -1.656,2.736 c 1.872,2.016 4.464,3.672 7.776,4.968 z" transform="translate(0 248.57846846018148) translate(251.99999999999994 88.23109332991791) scale(1.5136784131992764) translate(-362.17981 -69.24)"></path>
      <path id="path202172" style="font-style: normal; font-weight: 300; font-size: 72px; line-height: 1; font-family: &quot;Montserrat Light Alt1&quot;; font-variant-ligatures: none; text-align: center; text-anchor: middle; fill: rgb(255, 227, 97);" d="M 410.01481,66.576 V 120 h 3.6 V 66.576 Z" transform="translate(0 248.57846846018148) translate(335.0025557877823 84.19865403715502) scale(1.5136784131992764) translate(-410.01481 -66.576)"></path>
      <path id="path202174" style="font-style: normal; font-weight: 300; font-size: 72px; line-height: 1; font-family: &quot;Montserrat Light Alt1&quot;; font-variant-ligatures: none; text-align: center; text-anchor: middle; fill: rgb(215, 217, 130);" d="m 461.76256,82.416 h -3.6 v 20.016 c 0,4.464 -1.296,8.064 -3.744,10.656 -2.448,2.664 -5.832,3.96 -10.008,3.96 -3.96,0 -6.984,-1.08 -9.144,-3.312 -2.16,-2.16 -3.24,-5.4 -3.24,-9.648 V 82.416 h -3.6 v 21.96 c 0,5.184 1.368,9.072 4.176,11.808 2.736,2.736 6.624,4.104 11.52,4.104 3.312,0 6.192,-0.72 8.64,-2.16 2.448,-1.44 4.248,-3.528 5.544,-6.192 V 120 h 3.456 z" transform="translate(0 248.57846846018148) translate(373.46777320439895 108.17532010223155) scale(1.5136784131992764) translate(-428.42656 -82.416)"></path>
      <path id="path202176" style="font-style: normal; font-weight: 300; font-size: 72px; line-height: 1; font-family: &quot;Montserrat Light Alt1&quot;; font-variant-ligatures: none; text-align: center; text-anchor: middle; fill: rgb(215, 217, 130);" d="m 482.20494,117.84 c 2.88,1.656 6.12,2.448 9.792,2.448 3.024,0 5.76,-0.576 8.208,-1.728 2.448,-1.152 4.464,-2.88 6.048,-5.184 l -2.664,-1.944 c -1.368,1.872 -3.024,3.312 -5.04,4.248 -2.016,0.936 -4.176,1.368 -6.552,1.368 -2.952,0 -5.616,-0.648 -7.92,-1.944 -2.304,-1.296 -4.176,-3.168 -5.472,-5.616 -1.296,-2.376 -1.944,-5.112 -1.944,-8.28 0,-3.096 0.648,-5.832 1.944,-8.28 1.296,-2.376 3.168,-4.248 5.472,-5.544 2.304,-1.296 4.968,-2.016 7.92,-2.016 2.376,0 4.536,0.504 6.552,1.44 2.016,0.936 3.672,2.304 5.04,4.176 l 2.664,-1.944 c -1.584,-2.232 -3.6,-3.96 -6.048,-5.112 -2.448,-1.152 -5.184,-1.8 -8.208,-1.8 -3.672,0 -6.912,0.864 -9.792,2.448 -2.88,1.584 -5.184,3.888 -6.768,6.768 -1.656,2.88 -2.448,6.192 -2.448,9.864 0,3.672 0.792,6.984 2.448,9.864 1.584,2.88 3.888,5.184 6.768,6.768 z" transform="translate(0 248.57846846018148) translate(451.5166347435771 107.73938071923018) scale(1.5136784131992764) translate(-472.98894 -82.128)"></path>
      <path id="path202178" style="font-style: normal; font-weight: 300; font-size: 72px; line-height: 1; font-family: &quot;Montserrat Light Alt1&quot;; font-variant-ligatures: none; text-align: center; text-anchor: middle; fill: rgb(182, 209, 158);" d="m 529.71931,99.912 15.984,20.088 h 4.464 l -17.784,-22.392 16.2,-15.192 h -4.608 l -24.048,21.96 v -37.8 h -3.6 V 120 h 3.6 v -11.16 z" transform="translate(0 248.57846846018148) translate(527.7127387682151 84.19865403715502) scale(1.5136784131992764) translate(-516.32731 -66.576)"></path>
      <path id="path202180" style="font-style: normal; font-weight: 300; font-size: 72px; line-height: 1; font-family: &quot;Montserrat Light Alt1&quot;; font-variant-ligatures: none; text-align: center; text-anchor: middle; fill: rgb(182, 209, 158);" d="m 586.99531,82.416 h -3.672 l -15.048,33.624 -15.048,-33.624 h -3.816 l 16.92,37.44 -2.016,4.536 c -1.152,2.448 -2.304,4.176 -3.6,5.184 -1.296,1.008 -2.88,1.512 -4.68,1.512 -2.736,0 -5.112,-0.936 -6.984,-2.952 l -1.8,2.736 c 1.008,1.152 2.304,1.944 3.816,2.52 1.512,0.576 3.168,0.864 4.896,0.864 2.592,0 4.824,-0.648 6.696,-2.088 1.872,-1.368 3.6,-3.744 5.04,-7.056 z" transform="translate(0 248.57846846018148) translate(585.1174789103844 108.17532010223155) scale(1.5136784131992764) translate(-547.25131 -82.416)"></path>
      <path id="path202182" style="font-style: normal; font-weight: 300; font-size: 72px; line-height: 1; font-family: &quot;Montserrat Light Alt1&quot;; font-variant-ligatures: none; text-align: center; text-anchor: middle; fill: rgb(142, 199, 191);" d="m 600.77206,114.816 c 3.528,3.744 8.496,5.544 14.904,5.544 6.336,0 11.304,-1.8 14.904,-5.544 3.528,-3.672 5.328,-9.072 5.328,-16.2 V 69.6 h -3.672 v 28.872 c 0,6.192 -1.44,10.872 -4.248,13.896 -2.88,3.096 -6.912,4.608 -12.24,4.608 -5.4,0 -9.504,-1.512 -12.312,-4.608 -2.88,-3.024 -4.248,-7.704 -4.248,-13.896 V 69.6 h -3.672 v 29.016 c 0,7.128 1.728,12.528 5.256,16.2 z" transform="translate(0 248.57846846018148) translate(668.7705379962392 88.77601755866962) scale(1.5136784131992764) translate(-595.51606 -69.6)"></path>
      <path id="path202184" style="font-style: normal; font-weight: 300; font-size: 72px; line-height: 1; font-family: &quot;Montserrat Light Alt1&quot;; font-variant-ligatures: none; text-align: center; text-anchor: middle; fill: rgb(142, 199, 191);" d="M 653.04181,69.6 V 120 h 3.672 V 69.6 Z" transform="translate(0 248.57846846018148) translate(766.4417728667323 88.77601755866962) scale(1.5136784131992764) translate(-653.04181 -69.6)"></path>
    </g>
    <g id="tagline" style="font-style:normal;font-weight:400;font-size:32px;line-height:1;font-family:Montserrat;font-variant-ligatures:none;text-align:center;text-anchor:middle"></g>
  </g>
</svg>
